<svg width="47" height="47" viewBox="0 0 47 47" fill="none" xmlns="http://www.w3.org/2000/svg">
<path d="M20.916 10.75V31.972C20.916 33.676 20.628 35.092 20.052 36.22C19.488 37.36 18.594 38.308 17.37 39.064C16.41 39.64 15.456 40.024 14.508 40.216C13.56 40.42 12.534 40.522 11.43 40.522C10.662 40.522 9.834 40.402 8.946 40.162C8.514 40.042 8.112 39.904 7.74 39.748C7.368 39.592 7.026 39.412 6.714 39.208C6.03 38.884 5.4 38.452 4.824 37.912C4.26 37.384 3.792 36.808 3.42 36.184L7.578 34.15C7.698 34.342 7.836 34.528 7.992 34.708C8.16 34.9 8.358 35.092 8.586 35.284C8.934 35.608 9.378 35.848 9.918 36.004C10.458 36.172 10.974 36.256 11.466 36.256C12.15 36.256 12.804 36.166 13.428 35.986C14.052 35.818 14.574 35.554 14.994 35.194C15.522 34.774 15.894 34.312 16.11 33.808C16.326 33.316 16.416 32.68 16.38 31.9V29.92C14.892 31.012 13.032 31.558 10.8 31.558C9.468 31.558 8.172 31.276 6.912 30.712C5.664 30.16 4.638 29.368 3.834 28.336C2.274 26.416 1.494 23.932 1.494 20.884C1.494 19.444 1.686 18.094 2.07 16.834C2.454 15.562 3.042 14.422 3.834 13.414C4.638 12.37 5.676 11.572 6.948 11.02C8.208 10.468 9.552 10.192 10.98 10.192C12.096 10.192 13.17 10.378 14.202 10.75C15.234 11.122 16.152 11.65 16.956 12.334V10.75H20.916ZM15.48 25.87C15.96 25.318 16.326 24.604 16.578 23.728C16.83 22.84 16.956 21.892 16.956 20.884C16.956 19.864 16.836 18.922 16.596 18.058C16.356 17.194 15.984 16.456 15.48 15.844C14.556 14.776 13.284 14.242 11.664 14.242C9.768 14.242 8.382 14.89 7.506 16.186C6.702 17.314 6.3 18.88 6.3 20.884C6.3 22.948 6.678 24.508 7.434 25.564C7.878 26.212 8.454 26.698 9.162 27.022C9.87 27.346 10.656 27.508 11.52 27.508C13.212 27.508 14.532 26.962 15.48 25.87ZM27.1367 28.192C25.5047 26.224 24.6887 23.788 24.6887 20.884C24.6887 17.932 25.5047 15.478 27.1367 13.522C28.0247 12.454 29.1407 11.632 30.4847 11.056C31.8527 10.48 33.2867 10.192 34.7867 10.192C35.5427 10.192 36.2807 10.264 37.0007 10.408C37.7327 10.552 38.4227 10.768 39.0707 11.056C39.7307 11.332 40.3427 11.68 40.9067 12.1C41.4707 12.508 41.9807 12.982 42.4367 13.522C44.0567 15.502 44.8667 17.956 44.8667 20.884C44.8667 22.3 44.6747 23.608 44.2907 24.808C43.9187 26.008 43.3007 27.136 42.4367 28.192C41.5007 29.284 40.3727 30.118 39.0527 30.694C37.7447 31.27 36.3227 31.558 34.7867 31.558C34.0307 31.558 33.2867 31.486 32.5547 31.342C31.8347 31.198 31.1447 30.982 30.4847 30.694C29.8367 30.406 29.2247 30.052 28.6487 29.632C28.0847 29.212 27.5807 28.732 27.1367 28.192ZM38.8367 16.258C38.4047 15.646 37.8287 15.19 37.1087 14.89C36.3887 14.578 35.6147 14.422 34.7867 14.422C33.9227 14.422 33.1427 14.578 32.4467 14.89C31.7507 15.19 31.1807 15.646 30.7367 16.258C29.9087 17.326 29.4947 18.868 29.4947 20.884C29.4947 22.876 29.9087 24.4 30.7367 25.456C31.1807 26.068 31.7507 26.536 32.4467 26.86C33.1427 27.172 33.9227 27.328 34.7867 27.328C35.6147 27.328 36.3827 27.172 37.0907 26.86C37.7987 26.536 38.3807 26.068 38.8367 25.456C39.6887 24.316 40.1147 22.792 40.1147 20.884C40.1147 18.94 39.6887 17.398 38.8367 16.258Z" fill="#002AFF"/>
</svg>
